<?xml version="1.0" standalone="no"?>
<!DOCTYPE svg PUBLIC "-//W3C//DTD SVG 20010904//EN"
 "http://www.w3.org/TR/2001/REC-SVG-20010904/DTD/svg10.dtd">
<svg version="1.0" xmlns="http://www.w3.org/2000/svg"
 width="128.000000pt" height="128.000000pt" viewBox="0 0 128.000000 128.000000"
 preserveAspectRatio="xMidYMid meet">
<metadata>
Created by potrace 1.11, written by Peter Selinger 2001-2013
</metadata>
<g transform="translate(0.000000,128.000000) scale(0.100000,-0.100000)"
fill="#000000" stroke="none">
<path d="M410 1171 l0 -69 -52 -12 c-103 -25 -196 -86 -213 -141 -13 -41 11
-41 38 0 15 22 47 52 73 67 47 28 151 58 158 46 2 -4 7 -43 10 -87 7 -83 14
-158 21 -210 2 -16 6 -66 10 -110 l6 -80 -33 -20 c-39 -24 -35 -40 10 -39 26
1 32 -3 33 -20 1 -11 3 -37 4 -56 2 -19 6 -87 10 -150 3 -63 8 -134 10 -157 2
-27 -2 -46 -10 -53 -8 -7 -49 -10 -102 -9 -75 2 -88 0 -91 -15 -3 -11 4 -16
25 -17 168 -9 243 2 426 62 179 60 260 102 338 179 50 50 68 76 78 113 16 54
10 117 -13 152 -14 22 -96 73 -96 60 0 -2 -12 0 -27 6 -35 13 -189 12 -268 -1
-33 -6 -76 -13 -95 -16 -19 -3 -61 -12 -92 -19 -32 -7 -58 -12 -58 -11 0 2 37
26 83 54 255 155 313 274 198 405 -46 52 -123 78 -247 85 l-100 4 -2 54 c-1
56 -7 74 -23 74 -5 0 -9 -31 -9 -69z m256 -116 c33 -9 71 -30 94 -51 72 -66
71 -140 -3 -222 -47 -51 -247 -186 -258 -175 -4 5 -10 42 -14 83 -6 76 -12
134 -20 205 -15 140 -16 168 -5 175 19 12 146 3 206 -15z m378 -483 c58 -20
88 -55 91 -110 11 -142 -176 -274 -503 -357 -53 -13 -97 -23 -99 -21 -2 2 -5
41 -7 87 -2 46 -7 134 -11 194 -4 61 -8 121 -9 135 -1 23 4 26 104 47 58 12
130 25 160 29 30 3 56 7 58 9 12 11 175 2 216 -13z"/>
</g>
</svg>
